<svg xmlns="http://www.w3.org/2000/svg" version="1.1" xmlns:xlink="http://www.w3.org/1999/xlink" xmlns:svgjs="http://svgjs.dev/svgjs" width="1500" height="318" viewBox="0 0 1500 318"><g transform="matrix(1,0,0,1,-0.9090909090909918,-0.38914881719512096)"><svg viewBox="0 0 396 84" data-background-color="#131313" preserveAspectRatio="xMidYMid meet" height="318" width="1500" xmlns="http://www.w3.org/2000/svg" xmlns:xlink="http://www.w3.org/1999/xlink"><g id="tight-bounds" transform="matrix(1,0,0,1,0.2400000000000091,0.10279402718362007)"><svg viewBox="0 0 395.52 83.79441194563276" height="83.79441194563276" width="395.52"><g><svg viewBox="0 0 592.5242304998981 125.53150146206899" height="83.79441194563276" width="395.52"><g><rect width="8.191432959738703" height="108.99985655172414" x="416.96354177942067" y="8.265822455172426" fill="#f4dcfe" opacity="1" stroke-width="0" stroke="transparent" fill-opacity="1" class="rect-yte-0" data-fill-palette-color="primary" rx="1%" id="yte-0" data-palette-color="#f4dcfe"></rect></g><g transform="matrix(1,0,0,1,0,17.349143834482767)"><svg viewBox="0 0 395.52 90.83321379310345" height="90.83321379310345" width="395.52"><g id="textblocktransform"><svg viewBox="0 0 395.52 90.83321379310345" height="90.83321379310345" width="395.52" id="textblock"><g><svg viewBox="0 0 395.52 90.83321379310345" height="90.83321379310345" width="395.52"><g transform="matrix(1,0,0,1,0,0)"><svg width="395.52" viewBox="2.15 -37.35 217.48 49.95" height="90.83321379310345" data-palette-color="#f4dcfe"><path d="M12.35 0.5Q9.35 0.5 6.4-0.55 3.45-1.6 2.15-2.9L2.15-2.9 4.8-7.65Q5.85-6.7 8.08-5.68 10.3-4.65 12.35-4.65L12.35-4.65Q15-4.65 16.68-5.9 18.35-7.15 18.35-9.35L18.35-9.35Q18.35-11.05 17.45-12.3 16.55-13.55 15.25-14.38 13.95-15.2 11.55-16.4L11.55-16.4Q8.7-17.8 7.65-18.5L7.65-18.5Q2.8-21.75 2.8-27.5L2.8-27.5Q2.8-32.25 5.95-34.77 9.1-37.3 13.9-37.3L13.9-37.3Q19.05-37.3 22.65-34.35L22.65-34.35 20-29.8Q19.05-30.8 17.32-31.53 15.6-32.25 13.65-32.25L13.65-32.25Q11.15-32.25 9.73-31.13 8.3-30 8.3-27.8L8.3-27.8Q8.3-26.25 9.2-25.03 10.1-23.8 11.48-22.9 12.85-22 15.2-20.7L15.2-20.7Q17.45-19.45 18.65-18.73 19.85-18 20.9-17L20.9-17Q22.35-15.7 23.25-13.9 24.15-12.1 24.15-9.95L24.15-9.95Q24.15-6.6 22.63-4.25 21.1-1.9 18.43-0.7 15.75 0.5 12.35 0.5L12.35 0.5ZM31.8 0L31.8-18.55 27.75-18.55 27.75-22.95 31.8-22.95 31.8-32.3 37.25-33.5 37.25-22.95 42.55-22.95 42.55-18.55 37.25-18.55 37.25 0 31.8 0ZM46.8 0L46.8-22.95 52.2-22.95 52.2-18.45Q53-20.75 54.8-22.15 56.6-23.55 58.9-23.55L58.9-23.55Q60.5-23.55 61.09-23.25L61.09-23.25 60.34-17.8Q59.9-18.1 58.4-18.1L58.4-18.1Q56.05-18.1 54.12-16.6 52.2-15.1 52.2-11.8L52.2-11.8 52.2 0 46.8 0ZM75.74 0.5Q71.64 0.5 68.89-1.13 66.14-2.75 64.84-5.48 63.54-8.2 63.54-11.45L63.54-11.45Q63.54-15.1 65.07-17.85 66.59-20.6 69.29-22.08 71.99-23.55 75.39-23.55L75.39-23.55Q80.69-23.55 83.27-20.63 85.84-17.7 85.84-12.4L85.84-12.4Q85.84-11.05 85.69-9.6L85.69-9.6 69.19-9.6Q69.74-6.55 71.37-5.2 72.99-3.85 75.89-3.85L75.89-3.85Q78.29-3.85 79.84-4.25 81.39-4.65 82.69-5.35L82.69-5.35 84.34-1.5Q83.09-0.7 80.94-0.1 78.79 0.5 75.74 0.5L75.74 0.5ZM69.19-13.35L80.59-13.35Q80.64-16.45 79.24-17.73 77.84-19 75.24-19L75.24-19Q69.99-19 69.19-13.35L69.19-13.35ZM101.64 0.5Q98.54 0.5 95.91-0.98 93.29-2.45 91.72-5.18 90.14-7.9 90.14-11.55L90.14-11.55Q90.14-15.15 91.52-17.85 92.89-20.55 95.44-22.05 97.99-23.55 101.44-23.55L101.44-23.55Q103.44-23.55 105.19-22.85 106.94-22.15 108.14-21.13 109.34-20.1 109.74-19.1L109.74-19.1 109.84-22.95 114.99-22.95 114.99 0 109.89 0 109.79-4.05Q108.94-2.25 106.69-0.88 104.44 0.5 101.64 0.5L101.64 0.5ZM102.54-4Q105.39-4 107.34-5.98 109.29-7.95 109.29-11.15L109.29-11.15 109.29-11.5Q109.29-13.65 108.39-15.35 107.49-17.05 105.94-18 104.39-18.95 102.54-18.95L102.54-18.95Q99.34-18.95 97.59-16.88 95.84-14.8 95.84-11.5L95.84-11.5Q95.84-8.15 97.56-6.08 99.29-4 102.54-4L102.54-4ZM122.24 0L122.24-22.95 127.64-22.95 127.64-18.8Q128.74-21.15 130.86-22.35 132.99-23.55 135.74-23.55L135.74-23.55Q141.89-23.5 143.29-19.3L143.29-19.3Q144.39-21.25 146.59-22.4 148.79-23.55 151.24-23.55L151.24-23.55Q154.84-23.55 156.69-22.18 158.54-20.8 159.16-18.28 159.79-15.75 159.79-11.5L159.79-11.5 159.79 0 154.34 0 154.34-11.55Q154.34-15.6 153.51-17.35 152.69-19.1 150.34-19.1L150.34-19.1Q147.19-19.1 145.56-16.98 143.94-14.85 143.94-11.4L143.94-11.4 143.94 0 138.54 0 138.54-12.35Q138.54-15 138.34-16.3 138.14-17.6 137.24-18.35 136.34-19.1 134.34-19.1L134.34-19.1Q132.59-19.1 131.06-18.05 129.54-17 128.61-15.23 127.69-13.45 127.69-11.4L127.69-11.4 127.69 0 122.24 0ZM167.08 0L167.08-22.95 172.69-22.95 172.69 0 167.08 0ZM169.83-27.25Q168.28-27.25 167.23-28.3 166.19-29.35 166.19-30.9L166.19-30.9Q166.19-32.3 167.23-33.3 168.28-34.3 169.83-34.3L169.83-34.3Q171.33-34.3 172.38-33.3 173.44-32.3 173.44-30.9L173.44-30.9Q173.44-29.35 172.41-28.3 171.38-27.25 169.83-27.25L169.83-27.25ZM182.33 0L182.33-18.65 178.63-18.65 178.63-22.95 182.33-22.95 182.33-27.9Q182.33-32.4 184.51-34.88 186.68-37.35 190.88-37.35L190.88-37.35Q192.58-37.35 194.73-36.4L194.73-36.4 193.68-31.3Q193.33-31.7 192.61-32.08 191.88-32.45 191.03-32.45L191.03-32.45Q187.68-32.45 187.63-28.1L187.63-28.1 187.63-22.95 193.03-22.95 193.03-18.65 187.63-18.65 187.63 0 182.33 0ZM199.93 12.6L204.88 0.7 195.38-22.95 201.48-22.95 206.38-8.35 207.48-4.8 208.58-8.35 213.73-22.95 219.63-22.95 205.53 12.6 199.93 12.6Z" opacity="1" transform="matrix(1,0,0,1,0,0)" fill="#f4dcfe" class="wordmark-text-0" data-fill-palette-color="primary" id="text-0"></path></svg></g></svg></g></svg></g></svg></g><g transform="matrix(1,0,0,1,446.59851651858,0)"><svg viewBox="0 0 145.925713981318 125.53150146206899" height="125.53150146206899" width="145.925713981318"><g><svg xmlns="http://www.w3.org/2000/svg" xmlns:xlink="http://www.w3.org/1999/xlink" version="1.1" x="0" y="0" viewBox="20.358 23.98284738891747 60.00999999999999 51.623152611082524" enable-background="new 0 0 100 100" xml:space="preserve" height="125.53150146206899" width="145.925713981318" class="icon-icon-0" data-fill-palette-color="accent" id="icon-0"><path d="M60.541 28.82C61.073 31.173 61.717 33.713 61.842 36.162 61.875 36.816 61.914 37.674 61.641 38.232 63.868 39.714 62.778 42.794 61.475 44.361 61.006 44.923 59.94 45.621 59.702 46.318 59.35 47.343 58.915 48.349 58.294 49.256 57.775 50.012 57.886 49.44 57.369 50.6 57.019 52.176 56.488 55.745 57.239 57.21 58.225 59.131 60.385 60.347 62.173 61.369 64.543 62.725 67.191 63.72 69.722 64.731 72.052 65.662 74.482 66.357 76.724 67.495 77.427 67.851 78.136 68.199 78.802 68.623 79.339 68.965 80.24 69.492 80.368 70.182V75.606H20.358L20.399 70.182C20.527 69.493 21.428 68.965 21.965 68.623 22.631 68.199 23.34 67.852 24.043 67.495 26.285 66.357 28.716 65.662 31.045 64.731 33.576 63.719 36.223 62.725 38.594 61.369 40.381 60.347 42.541 59.131 43.527 57.21 44.279 55.744 43.859 52.16 43.508 50.586 42.907 50.197 42.492 48.992 42.151 48.389 41.792 47.752 41.503 47.065 41.065 46.475 40.468 45.67 39.473 45.293 38.823 44.539 38.389 44.037 38.204 43.415 37.989 42.799 37.732 42.063 37.858 41.465 37.743 40.638 37.692 40.284 37.873 39.873 38.083 39.574 38.341 39.206 38.811 39.134 38.93 38.668 39.077 38.091 38.753 37.415 38.691 36.845 38.625 36.236 38.467 35.265 38.47 34.654 38.48 32.437 38.07 30.437 39.845 28.685 40.469 28.071 41.178 27.54 41.855 26.986 42.115 26.158 43.362 25.648 44.091 25.37 45.038 25.01 46.034 24.808 47.005 24.519 49.935 23.646 53.302 23.739 55.871 25.548 56.714 26.142 57.876 25.632 58.764 26.142 59.619 26.634 60.639 27.771 60.541 28.82" fill="#eeff5f" data-fill-palette-color="accent"></path></svg></g></svg></g></svg></g><defs></defs></svg><rect width="395.52" height="83.79441194563276" fill="none" stroke="none" visibility="hidden"></rect></g></svg></g></svg>