<svg xmlns="http://www.w3.org/2000/svg" xmlns:svgjs="http://svgjs.dev/svgjs" xmlns:xlink="http://www.w3.org/1999/xlink" width="2000" height="1500" version="1.1" viewBox="0 0 2000 1500"><rect width="2000" height="1500" fill="#000"/><g transform="matrix(0.4444444444444444,0,0,0.4444444444444444,555.5556208333335,250)"><svg xmlns="http://www.w3.org/2000/svg" xmlns:xlink="http://www.w3.org/1999/xlink" width="2000" height="2250" data-background-color="#ffffff" preserveAspectRatio="xMidYMid meet" viewBox="0 0 320 360"><g id="tight-bounds" transform="matrix(1,0,0,1,0.000023499999997511622,0)"><svg width="320" height="360" viewBox="0 0 320 360"><g><svg/></g><g><svg width="320" height="360" viewBox="0 0 320 360"><g><path fill="#fff" fill-rule="nonzero" stroke="none" stroke-dashoffset="0" stroke-linecap="butt" stroke-linejoin="miter" stroke-miterlimit="10" stroke-width="1" d="M20.6 59.9l0.8 1-0.4-1.3c-0.1-0.6-0.8 0.1-0.4 0.3M21.5 59.3c0.3 0.5 0.6 1 0.6 1.5 0 0.7 0.6 1 1.1 1.2-0.7-0.8-1.1-3-1.7-2.7M59.9 16.9c1.7 0 3.3-0.2 5.1 0.2 4.4 1.1 8.1 3.3 10.6 6.4l7 11.2c0.3 2.8 0.9 5.9 0.8 9.3 0.7 0 0.6-1 1.4-1.2-0.8 2-1.2 4.5-1.4 7.4-0.5-1.6 0-4 0.1-5.3-0.7 1.1-1.1 0.3-1.1-0.2 0.1-0.8-0.3-0.7-0.6-1-1.1-1-1.8-2.1-2.6-3.8 0.5-1.3 0.6-3.2-1-4.2-0.5-0.3-1.1-0.8-1.4-1.6-0.4-1.1-1.1-2.4-0.9-4.1 0.1-0.5-1.5 1.1-2.4 0.4-3.9-2.7-7.8-5.8-12.5-8.4-2.5 0-4.3-0.9-5.2-2-0.8-1-0.2-2.3 1-2.4 0.7 0 1.5-0.2 2.1 0.2 0.1-0.4 0.5-0.9 1-0.9M50 14.6l0.2 0.1c1 0.2 1.5 1.6 2.6 1.1 0 0.7 0.1 1.4-0.1 1.9-0.3 0.8-1.2 0.8-1.9 0.8-6.7-0.4-10.6 2.4-14.7 4.8-1.1 0.7-2.3 1.2-3.2 2.1-4.3 4-9 7.7-10.1 15.1l-0.9 8.2c-0.1 0.9-1.1 1.8-0.9 2.9l0.7 4.9c-0.7-0.7-1.1 0.2-0.9 0.6 0.1 0.3 0.5 1.3 1.1 0.4 0.8 1.5 1.6 4.4 2.7 5.7 3.4 4 7.8 7.6 11.4 11.2 0.9-0.2 1.6-0.2 1.8-0.8 0.3 0.6-0.3 1.2-0.8 1.3 1.6 1 3.4 1.9 5.8 2.1 3.1 0.2 6 0.7 8.7 1.4 1.4-0.4 2.8-0.6 4.3-0.7 0.5 0 0.8-0.8 1.4-1l0.1-1c0.6 0.9 0.5-0.3 0.1-0.9 0.7 0.6 0.9 1.1 1.2 1.5 0-0.3 0.8-1.4 0.8-0.1l0.2-1.3c0.3-0.2 0.4 1.1 0.7 0.2 0.3-0.9 0.9-0.2 1.5-0.5-0.2 0.4-0.1 1.2 0.6 0.7l0.8-0.7c0.5 1.2 1.3 0.7 1.7 0.5 4.4-2.8 8.8-6.1 13-9.4l-0.1 1.3 0.5-1.6c0.5 0.5 0.9 0.1 1.1-0.2 0.6-1 1.4-2 2.7-2.9-1.6 4.3-3.5 7.7-5.9 10.5l-1 1.2c0 0.7-0.2 1.6-1 1.7-0.4 0.1-1.2-0.2-1.8 0.4-0.3 0.4 0.7 1.2-0.1 0.6-0.7-0.5-1.4 0-2.2 0.2-0.6 0.2 0.4 0.8 0.6 1.2 0.2 0.4 0.4 0.8 0.3 1.3l-1.1-1.2c-1.3 0.7-2.1 2-3.2 3-0.5 0.4-0.3 1.1-0.3 1.7-0.7 0-1.5-0.2-1.9 0.2-0.3 0.4-0.2 1-0.2 1.6-1-0.1-1.1-1.6-2-1.3-0.9 0.2-1.9 0.3-2.7 0.8 0.6 1.2-1 0.5-0.8 0.7-1.5-0.9-2.8-1.6-4.4-1-3.4-1.1-7.6-0.6-10.7-0.2 0-0.5 0.1-1-0.1-1.1-0.2 0.5-0.8 0.3-0.7 0.3-1.9-1.3-3.8-2.1-5.8-3.2-1.8 0.2-3.5-0.7-4-1.2-1.4-1.3-3-0.6-4.3-0.9-2.8-0.7-3.8-3.6-4.1-5.6-0.2-1-1-1.4-1.3-1.3-1.3-4.2-3.3-8-4.9-11.9-0.4-1-0.3-2-0.3-3.1 0.5 0.2 1 0.1 0.9-0.6-0.5-3.3-1.7-5.8-3-8.2 0.7-3.4 0.8-7.4 2.4-10.4 1.4-2.7 4-4.1 5.8-6.4 0.6-0.8 0.6-1.9 1.2-2.6 2-2 4-4.1 6.2-5.9 1-0.8 2.2 0 3.7-0.3 0.5-1.8 2.5-3.4 4.4-2.9 0.8 0.2 2.4-1.9 2.9-2.1 0.8-0.3 0.4 0.8 0.4 1.5 1.9-1.5 4.5-2.3 6.9-3.2" data-fill-palette-color="tertiary" font-family="none" font-size="none" font-weight="none" text-anchor="none" transform="translate(-74.99272,-51.79039) scale(4.65793,4.65793)" style="mix-blend-mode:normal"/></g><g transform="matrix(1,0,0,1,128.83624399348588,90)"><svg width="62.328" height="180" viewBox="0 0 62.328 180"><g><svg width="62.328" height="180" viewBox="0 0 62.328 180"><g><svg width="62.328" height="180" viewBox="0 0 84.568 244.229"><g transform="matrix(1,0,0,1,0,64.22900062903753)"><svg width="84.568" height="180" viewBox="0 0 84.568 180"><g id="textblocktransform"><svg id="textblock" width="84.568" height="180" viewBox="0 0 84.568 180"><g><svg width="84.568" height="180" viewBox="0 0 84.568 180"><g transform="matrix(1,0,0,1,0,0)"><svg width="84.568" height="180" data-palette-color="#2baeb7" viewBox="1.88 -30.33 14.4 30.66"><path id="text-0" fill="#fff" d="M1.95-6.15L1.95-6.15Q1.93-7.3 1.94-8.35 1.95-9.4 2-10.5L2-10.5 5.63-10.5Q5.55-8.95 5.56-7.79 5.58-6.63 5.58-5.75L5.58-5.75Q5.6-4.4 6.06-3.74 6.53-3.08 7.58-2.85L7.58-2.85 7.58 0.33Q4.55 0.08 3.31-1.46 2.08-3 1.95-6.15ZM10.23 0.33L10.23 0.33 10.23-2.83Q11.4-3.03 11.93-3.71 12.45-4.4 12.5-5.78L12.5-5.78Q12.53-6.5 12.53-7.03 12.53-7.55 12.53-8.04 12.53-8.53 12.5-9.13L12.5-9.13Q12.45-10.9 12-11.74 11.55-12.58 10.13-13.03L10.13-13.03 7.38-13.8Q5.4-14.38 4.23-15.24 3.05-16.1 2.51-17.49 1.98-18.88 1.9-21.08L1.9-21.08Q1.88-21.98 1.88-22.56 1.88-23.15 1.9-23.8L1.9-23.8Q1.98-27 3.29-28.55 4.6-30.1 7.8-30.33L7.8-30.33 7.8-27.18Q6.78-26.95 6.34-26.3 5.9-25.65 5.85-24.3L5.85-24.3Q5.85-23.85 5.83-23.1 5.8-22.35 5.8-21.48L5.8-21.48Q5.85-19.7 6.25-18.63 6.65-17.55 8.22-17.1L8.22-17.1 10.83-16.43Q13.63-15.7 14.95-14.09 16.28-12.48 16.28-9.25L16.28-9.25Q16.28-8.35 16.28-7.66 16.28-6.98 16.23-6.05L16.23-6.05Q16.13-2.93 14.79-1.41 13.45 0.1 10.23 0.33ZM16-19.58L12.3-19.58Q12.35-20.4 12.35-21.29 12.35-22.18 12.35-22.98 12.35-23.78 12.33-24.33L12.33-24.33Q12.3-25.63 11.89-26.29 11.48-26.95 10.45-27.13L10.45-27.13 10.45-30.33Q13.43-30.08 14.7-28.55 15.98-27.03 16.1-23.85L16.1-23.85Q16.1-23.48 16.1-22.69 16.1-21.9 16.09-21.05 16.07-20.2 16-19.58L16-19.58Z" class="wordmark-text-0" data-fill-palette-color="primary" opacity="1" transform="matrix(1,0,0,1,0,0)"/></svg></g></svg></g></svg></g></svg></g><g transform="matrix(1,0,0,1,16.15243066884176,0)"><svg width="52.263" height="37.963" viewBox="0 0 52.263 37.963"><g><svg xmlns="http://www.w3.org/2000/svg" xmlns:xlink="http://www.w3.org/1999/xlink" id="icon-0" width="52.263" height="37.963" x="0" y="0" class="icon-icon-0" data-fill-palette-color="accent" enable-background="new 0 0 100 100" version="1.1" viewBox="0 13.681 100 72.638" xml:space="preserve"><path fill="#fff" d="M8.356 22.176V44.455H26.648V22.176zM17.72 24.935A4.34 4.34 0 0 1 22.06 29.271 4.34 4.34 0 0 1 17.72 33.607 4.337 4.337 0 0 1 13.382 29.271 4.337 4.337 0 0 1 17.72 24.935M22.852 41.463C22.852 42.013 22.402 42.463 21.852 42.463H13.154C12.604 42.463 12.154 42.013 12.154 41.463V39.876A4.086 4.086 0 0 1 16.229 35.802H18.778A4.086 4.086 0 0 1 22.852 39.876z" data-fill-palette-color="accent"/><g fill="#1e16b8" data-fill-palette-color="accent"><rect width="32.285" height="2" x="32.326" y="22.188" fill="#fff" data-fill-palette-color="accent"/></g><g fill="#1e16b8" data-fill-palette-color="accent"><rect width="32.285" height="2" x="32.326" y="28.958" fill="#fff" data-fill-palette-color="accent"/></g><g fill="#1e16b8" data-fill-palette-color="accent"><rect width="32.285" height="2" x="32.326" y="35.727" fill="#fff" data-fill-palette-color="accent"/></g><g fill="#1e16b8" data-fill-palette-color="accent"><rect width="32.285" height="2" x="32.326" y="42.497" fill="#fff" data-fill-palette-color="accent"/></g><g fill="#1e16b8" data-fill-palette-color="accent"><path fill="#fff" d="M68.145 64.248C70.881 64.248 73.12 62.019 73.141 59.286V24.073H73.145V18.681C73.145 15.931 70.895 13.681 68.145 13.681H5C2.25 13.681 0 15.931 0 18.681V59.247C0 61.997 2.25 64.247 5 64.247H68.145zM5 61.248C3.916 61.248 3 60.332 3 59.248V18.682C3 17.598 3.916 16.682 5 16.682H68.145C69.229 16.682 70.145 17.598 70.145 18.682V59.248C70.145 60.332 69.229 61.248 68.145 61.248z" data-fill-palette-color="accent"/></g><g fill="#1e16b8" data-fill-palette-color="accent"><path fill="#fff" d="M77.388 71.014C77.388 68.797 78.4 66.827 79.96 65.49 78.68 64.386 77.034 63.698 75.208 63.698A7.313 7.313 0 0 0 67.892 71.014 7.31 7.31 0 0 0 75.208 78.326C77.034 78.326 78.68 77.638 79.96 76.534 78.399 75.194 77.388 73.231 77.388 71.014" data-fill-palette-color="accent"/><path fill="#fff" d="M84.705 63.697C82.884 63.697 81.237 64.385 79.96 65.489 81.514 66.827 82.524 68.797 82.524 71.013 82.524 73.231 81.513 75.194 79.96 76.533 81.237 77.637 82.884 78.325 84.705 78.325A7.31 7.31 0 0 0 92.02 71.013 7.314 7.314 0 0 0 84.705 63.697" data-fill-palette-color="accent"/></g><path fill="#fff" d="M95 35.751H74.641V38.751H95C96.084 38.751 97 39.667 97 40.751V81.319C97 82.403 96.084 83.319 95 83.319H31.858C30.774 83.319 29.858 82.403 29.858 81.319V65.75H26.858V81.319C26.858 84.069 29.108 86.319 31.858 86.319H95C97.75 86.319 100 84.069 100 81.319V40.751C100 38.001 97.75 35.751 95 35.751" data-fill-palette-color="accent"/></svg></g></svg></g></svg></g></svg></g></svg></g></svg></g></svg><rect width="320" height="360" fill="none" stroke="none" visibility="hidden"/></g></svg></g></svg>